<svg width="120" height="120" viewBox="0 0 120 120" fill="none" xmlns="http://www.w3.org/2000/svg">
<path d="M120 60C120 93.1371 93.1371 120 60 120C26.8629 120 0 93.1371 0 60C0 26.8629 26.8629 0 60 0C93.1371 0 120 26.8629 120 60Z" fill="#4055EB"/>
<path fill-rule="evenodd" clip-rule="evenodd" d="M105.506 37.6328C105.557 37.6605 105.597 37.7065 105.616 37.7618L109.264 48.1263C109.273 48.1513 109.277 48.1776 109.277 48.2041V66.4665C109.277 66.4913 109.273 66.5159 109.266 66.5394L106.141 76.0886C106.123 76.1423 106.087 76.1878 106.038 76.2168L101.364 79.0098C101.328 79.0315 101.286 79.043 101.244 79.043H26.5351C26.5017 79.043 26.4686 79.0358 26.4382 79.022L20.2658 76.2216C20.1971 76.1904 20.1475 76.1279 20.1328 76.0538L18.4615 67.6398C18.4585 67.6248 18.457 67.6095 18.457 67.5941V48.1927C18.457 48.1737 18.4594 48.1547 18.4639 48.1362L20.7171 39.0659C20.7331 39.0016 20.7755 38.947 20.834 38.9157L28.249 34.9496C28.283 34.9314 28.321 34.9219 28.3595 34.9219H100.371C100.41 34.9219 100.447 34.9314 100.481 34.9495L105.506 37.6328ZM40.4297 40.6641C31.1099 40.6641 23.5547 48.2193 23.5547 57.5391C23.5547 66.8589 31.1099 74.4141 40.4297 74.4141C49.7495 74.4141 57.3047 66.8589 57.3047 57.5391C57.3047 48.2193 49.7495 40.6641 40.4297 40.6641ZM87.0703 40.6641C77.7505 40.6641 70.1953 48.2193 70.1953 57.5391C70.1953 66.8589 77.7505 74.4141 87.0703 74.4141C96.3901 74.4141 103.945 66.8589 103.945 57.5391C103.945 48.2193 96.3901 40.6641 87.0703 40.6641Z" fill="white"/>
<path d="M15.8789 45.3516H16.4648L16.5234 86.9531L16.2305 87.2461L16.1133 89.8242H15.293V80.7422H13.1836V68.4375H14.1797L14.6484 67.9688V66.4453L14.1797 65.9766H12.5391V65.1562H14.1797L14.6484 64.8047V62.9297L14.1797 62.5781H13.1836V51.9141H15.3516V43.4766H11.3672V42.8906H15.8789V45.3516Z" fill="white"/>
<path d="M17.168 34.9496H26.3086L20.7499 38.0134C20.2596 38.2837 19.905 38.7471 19.7723 39.2911L17.6937 47.8133C17.6558 47.9685 17.6367 48.1276 17.6367 48.2873V67.6398C18.0969 70.5685 18.7573 73.9724 19.0973 75.6797C19.233 76.3614 19.7155 76.921 20.3583 77.1855C21.2471 77.5512 22.6874 78.1737 24.6094 79.1016H22.1484V82.9102H17.168V34.9496Z" fill="white"/>
<path d="M28.3594 79.8047H31.0547V82.9688H28.3594V79.8047Z" fill="white"/>
<path d="M33.1055 85.0781V79.8633H65.918V81.5039L66.2695 81.8555H68.0859V83.1445L67.3828 83.8477H63.2812V81.9727L63.0469 81.7383H62.6911L62.2852 81.9727V85.0781H61.875V83.1445H61.582V85.0781H61.2305V83.1445H60.8789V85.0781H60.5273V83.1445H60.293V85.0781H59.9414V83.1445H59.5898V85.0781H59.2383V83.1445H58.9453V85.0781H58.5352V83.1445H58.3008V85.0781H57.9492V83.1445H57.5977V85.0781H57.2461V83.1445H56.9531V85.0781H56.6016V83.1445H56.3086V85.0781H55.957V83.1445H55.6055V85.0781H55.2539V83.1445H55.0195V85.0781H54.6094V83.1445H54.3164V85.0781H53.9648V83.1445H53.6719V85.0781H53.3203V83.1445H53.0273V85.0781H52.6172V83.1445H52.3828V85.0781H52.0898V83.1445H51.7383V85.0781H51.3281V83.1445H51.0352V85.0781H50.6836V83.1445H50.4492V85.0781H50.0391V83.1445H49.8047V85.0781H49.4531V83.1445H49.1016V85.0781H48.75V83.1445H48.457V85.0781H48.1055V83.1445H47.7539V85.0781H47.4023V83.1445H47.168V85.0781H46.7578V83.1445H46.5234V85.0781H46.1719V83.1445H45.8203V85.0781H45.4688V83.1445H45.1758V85.0781H44.8242V83.1445H44.5898V85.0781H44.2383V83.1445H43.8867V85.0781H43.5352V83.1445H43.2422V85.0781H42.832V83.1445H42.5977V85.0781H42.2461V83.1445H41.8945V85.0781H41.543V83.1445H41.3086V85.0781H40.957V83.1445H40.6055V85.0781H40.2539V83.1445H39.9023V85.0781H39.5508V83.1445H39.3164V85.0781H38.9648V83.1445H38.6133V85.0781H38.2617V83.1445H38.0273V85.0781H37.6172V82.0898L37.3828 81.8555H36.9727L36.7383 82.0898V85.0781H36.3867V83.1445H36.0352V85.0781H35.6836V83.1445H35.3906V85.0781H35.0977V83.1445H34.8047V85.0781H34.4531V83.1445H34.1016V85.0781H33.8086V83.1445H33.5156V85.0781H33.1055Z" fill="white"/>
<path d="M37.4385 47.475L39.8147 51.4352C38.5959 51.4352 37.3147 52.2165 36.8264 52.6071C36.0061 51.7282 30.967 49.3844 28.1545 48.4469C28.7057 47.565 30.9682 45.5941 32.5515 44.7782C32.7375 44.6824 32.9533 44.6637 33.1484 44.7392C34.2154 45.1522 36.3445 46.459 37.2318 47.2245C37.3146 47.2959 37.3823 47.3812 37.4385 47.475Z" fill="white"/>
<path d="M31.3629 52.4237L35.8507 53.5143C34.9946 54.3818 34.6506 55.8425 34.5857 56.4644C33.3839 56.4308 28.1761 58.371 25.5332 59.7142C25.2927 58.7024 25.4792 55.7076 26.0107 54.0076C26.0731 53.808 26.2115 53.6412 26.4022 53.5554C27.4456 53.0861 29.8713 52.4887 31.0394 52.3949C31.1484 52.3861 31.2567 52.3979 31.3629 52.4237Z" fill="white"/>
<path d="M30.4905 60.5507L34.4764 58.2179C34.4631 59.4366 35.2303 60.7263 35.6156 61.2188C34.7278 62.0295 32.3292 67.0427 31.3611 69.8448C30.4852 69.284 28.5391 67.0002 27.7406 65.408C27.6468 65.2211 27.6305 65.005 27.7081 64.8108C28.1327 63.7484 29.4626 61.6336 30.2378 60.7547C30.3101 60.6727 30.3961 60.606 30.4905 60.5507Z" fill="white"/>
<path d="M35.6458 66.7096L36.7557 62.2266C37.6195 63.0864 39.0787 63.4366 39.7003 63.5042C39.6616 64.7058 41.5794 69.9219 42.9113 72.5705C41.8984 72.8067 38.9045 72.6074 37.2068 72.0686C37.0074 72.0053 36.8413 71.8662 36.7563 71.6751C36.2914 70.6297 35.7045 68.2015 35.6157 67.0329C35.6074 66.9239 35.6196 66.8157 35.6458 66.7096Z" fill="white"/>
<path d="M43.4976 67.3999L41.0637 63.4749C42.2823 63.457 43.552 62.6571 44.0345 62.2593C44.8676 63.1261 49.9405 65.3958 52.7664 66.292C52.2282 67.1819 49.9948 69.1858 48.4236 70.0248C48.2391 70.1233 48.0235 70.1451 47.8273 70.0725C46.7544 69.6752 44.6064 68.3997 43.708 67.6473C43.6242 67.5771 43.5552 67.4928 43.4976 67.3999Z" fill="white"/>
<path d="M49.7813 62.1093L45.2523 61.2049C46.0719 60.3029 46.3552 58.8292 46.3945 58.2051C47.5966 58.189 52.7199 56.0355 55.305 54.5843C55.5871 55.5854 55.5245 58.5852 55.0636 60.3058C55.0095 60.5078 54.8781 60.6801 54.691 60.7737C53.6679 61.2857 51.2689 61.9828 50.1057 62.1247C49.9972 62.138 49.8885 62.1307 49.7813 62.1093Z" fill="white"/>
<path d="M50.3409 54.4144L46.3666 56.7668C46.3738 55.5481 45.6003 54.2622 45.2126 53.7716C46.0963 52.9565 48.4702 47.9316 49.4244 45.1247C50.3031 45.6812 52.2605 47.9554 53.0668 49.5436C53.1615 49.7301 53.1789 49.9461 53.1022 50.1407C52.6829 51.2052 51.3634 53.3264 50.5926 54.2091C50.5207 54.2915 50.435 54.3587 50.3409 54.4144Z" fill="white"/>
<path d="M45.4194 48.3156L44.2711 52.7889C43.4148 51.9218 41.9586 51.559 41.3376 51.4861C41.3866 50.2848 39.5136 45.0525 38.2045 42.3925C39.2193 42.1651 42.2114 42.3901 43.9045 42.9434C44.1033 43.0084 44.2683 43.1489 44.3516 43.3407C44.8075 44.3901 45.3736 46.8233 45.4524 47.9925C45.4597 48.1016 45.4466 48.2097 45.4194 48.3156Z" fill="white"/>
<path d="M45.674 57.4704C45.674 60.3504 43.3393 62.6852 40.4592 62.6852C37.5791 62.6852 35.2444 60.3504 35.2444 57.4704C35.2444 54.5903 37.5791 52.2555 40.4592 52.2555C43.3393 52.2555 45.674 54.5903 45.674 57.4704Z" fill="white"/>
<path d="M84.0792 47.475L86.4553 51.4352C85.2365 51.4352 83.9553 52.2165 83.467 52.6071C82.6467 51.7282 77.6076 49.3844 74.7951 48.4469C75.3464 47.565 77.6088 45.5941 79.1921 44.7782C79.3781 44.6824 79.594 44.6637 79.789 44.7392C80.856 45.1522 82.9851 46.459 83.8724 47.2245C83.9552 47.2959 84.0229 47.3812 84.0792 47.475Z" fill="white"/>
<path d="M78.0035 52.4237L82.4913 53.5143C81.6352 54.3818 81.2912 55.8425 81.2263 56.4644C80.0245 56.4308 74.8167 58.371 72.1738 59.7142C71.9333 58.7024 72.1198 55.7076 72.6513 54.0076C72.7137 53.808 72.8521 53.6412 73.0429 53.5554C74.0862 53.0861 76.5119 52.4887 77.6801 52.3949C77.7891 52.3861 77.8973 52.3979 78.0035 52.4237Z" fill="white"/>
<path d="M77.1311 60.5507L81.117 58.2179C81.1037 59.4366 81.8709 60.7263 82.2562 61.2188C81.3684 62.0295 78.9699 67.0427 78.0018 69.8448C77.1259 69.284 75.1797 67.0002 74.3812 65.408C74.2874 65.2211 74.2711 65.005 74.3487 64.8108C74.7733 63.7484 76.1033 61.6336 76.8784 60.7547C76.9507 60.6727 77.0367 60.606 77.1311 60.5507Z" fill="white"/>
<path d="M82.2865 66.7096L83.3963 62.2266C84.2601 63.0864 85.7193 63.4366 86.3409 63.5042C86.3023 64.7058 88.2201 69.9219 89.5519 72.5705C88.5391 72.8067 85.5451 72.6074 83.8474 72.0686C83.6481 72.0053 83.4819 71.8662 83.3969 71.6751C82.9321 70.6297 82.3451 68.2015 82.2563 67.0329C82.248 66.9239 82.2602 66.8157 82.2865 66.7096Z" fill="white"/>
<path d="M90.1382 67.3999L87.7043 63.4749C88.923 63.457 90.1926 62.6571 90.6751 62.2593C91.5082 63.1261 96.5811 65.3958 99.407 66.292C98.8688 67.1819 96.6354 69.1858 95.0642 70.0248C94.8797 70.1233 94.6641 70.1451 94.468 70.0725C93.3951 69.6752 91.247 68.3997 90.3486 67.6473C90.2648 67.5771 90.1959 67.4928 90.1382 67.3999Z" fill="white"/>
<path d="M96.4219 62.1093L91.893 61.2049C92.7125 60.3029 92.9959 58.8292 93.0351 58.2051C94.2372 58.189 99.3605 56.0355 101.946 54.5843C102.228 55.5854 102.165 58.5852 101.704 60.3058C101.65 60.5078 101.519 60.6801 101.332 60.7737C100.309 61.2857 97.9096 61.9828 96.7463 62.1247C96.6378 62.138 96.5291 62.1307 96.4219 62.1093Z" fill="white"/>
<path d="M96.9815 54.4144L93.0072 56.7668C93.0145 55.5481 92.2409 54.2622 91.8532 53.7716C92.737 52.9565 95.1108 47.9316 96.0651 45.1247C96.9437 45.6812 98.9011 47.9554 99.7075 49.5436C99.8022 49.7301 99.8195 49.9461 99.7429 50.1407C99.3235 51.2052 98.004 53.3264 97.2332 54.2091C97.1613 54.2915 97.0756 54.3587 96.9815 54.4144Z" fill="white"/>
<path d="M92.06 48.3156L90.9117 52.7889C90.0554 51.9218 88.5992 51.559 87.9782 51.4861C88.0272 50.2848 86.1542 45.0525 84.8451 42.3925C85.86 42.1651 88.8521 42.3901 90.5451 42.9434C90.7439 43.0084 90.9089 43.1489 90.9922 43.3407C91.4481 44.3901 92.0142 46.8233 92.093 47.9925C92.1003 48.1016 92.0872 48.2097 92.06 48.3156Z" fill="white"/>
<path d="M92.3147 57.4704C92.3147 60.3504 89.9799 62.6852 87.0998 62.6852C84.2197 62.6852 81.885 60.3504 81.885 57.4704C81.885 54.5903 84.2197 52.2555 87.0998 52.2555C89.9799 52.2555 92.3147 54.5903 92.3147 57.4704Z" fill="white"/>
</svg>
