<svg width="1024" height="1024" viewBox="0 0 1024 1024" fill="none" xmlns="http://www.w3.org/2000/svg">
<g clip-path="url(#clip0_9_6)">
<rect width="1024" height="1024" fill="transparent"/>
<path d="M1024 512C1024 794.77 794.77 1024 512 1024C229.23 1024 0 794.77 0 512C0 229.23 229.23 0 512 0C794.77 0 1024 229.23 1024 512Z" fill="#4055EB"/>
<path fill-rule="evenodd" clip-rule="evenodd" d="M900.314 321.134C900.755 321.369 901.092 321.762 901.258 322.234L932.387 410.678C932.462 410.891 932.5 411.116 932.5 411.342V567.181C932.5 567.392 932.467 567.602 932.401 567.803L905.733 649.289C905.583 649.747 905.272 650.136 904.858 650.384L864.974 674.217C864.664 674.402 864.309 674.5 863.948 674.5H226.432C226.147 674.5 225.866 674.439 225.606 674.321L172.935 650.424C172.348 650.158 171.926 649.625 171.8 648.993L157.538 577.193C157.513 577.065 157.5 576.934 157.5 576.803V411.245C157.5 411.082 157.52 410.92 157.559 410.763L176.786 333.362C176.922 332.813 177.285 332.348 177.783 332.081L241.058 298.236C241.348 298.081 241.672 298 242.001 298H856.499C856.828 298 857.152 298.081 857.442 298.236L900.314 321.134ZM345 347C265.471 347 201 411.471 201 491C201 570.529 265.471 635 345 635C424.529 635 489 570.529 489 491C489 411.471 424.529 347 345 347ZM743 347C663.471 347 599 411.471 599 491C599 570.529 663.471 635 743 635C822.529 635 887 570.529 887 491C887 411.471 822.529 347 743 347Z" fill="white"/>
<path d="M135.5 387H140.5L141 742L138.5 744.5L137.5 766.5H130.5V689H112.5V584H121L125 580V567L121 563H107V556H121L125 553V537L121 534H112.5V443H131V371H97V366H135.5V387Z" fill="white"/>
<path d="M146.5 298.236H224.5L171.269 327.576C170.779 327.846 170.424 328.31 170.292 328.854L150.557 409.766C150.519 409.922 150.5 410.081 150.5 410.24V577.193C155.483 608.905 163.216 647.146 164.625 654.052C164.764 654.733 165.237 655.288 165.888 655.534C169.88 657.046 185.267 663.06 210 675H189V707.5H146.5V298.236Z" fill="white"/>
<path d="M242 681H265V708H242V681Z" fill="white"/>
<path d="M282.5 726V681.5H562.5V695.5L565.5 698.5H581V709.5L575 715.5H540V699.5L538 697.5H534.964L531.5 699.5V726H528V709.5H525.5V726H522.5V709.5H519.5V726H516.5V709.5H514.5V726H511.5V709.5H508.5V726H505.5V709.5H503V726H499.5V709.5H497.5V726H494.5V709.5H491.5V726H488.5V709.5H486V726H483V709.5H480.5V726H477.5V709.5H474.5V726H471.5V709.5H469.5V726H466V709.5H463.5V726H460.5V709.5H458V726H455V709.5H452.5V726H449V709.5H447V726H444.5V709.5H441.5V726H438V709.5H435.5V726H432.5V709.5H430.5V726H427V709.5H425V726H422V709.5H419V726H416V709.5H413.5V726H410.5V709.5H407.5V726H404.5V709.5H402.5V726H399V709.5H397V726H394V709.5H391V726H388V709.5H385.5V726H382.5V709.5H380.5V726H377.5V709.5H374.5V726H371.5V709.5H369V726H365.5V709.5H363.5V726H360.5V709.5H357.5V726H354.5V709.5H352.5V726H349.5V709.5H346.5V726H343.5V709.5H340.5V726H337.5V709.5H335.5V726H332.5V709.5H329.5V726H326.5V709.5H324.5V726H321V700.5L319 698.5H315.5L313.5 700.5V726H310.5V709.5H307.5V726H304.5V709.5H302V726H299.5V709.5H297V726H294V709.5H291V726H288.5V709.5H286V726H282.5Z" fill="white"/>
<path d="M319.475 405.12L339.752 438.914C329.352 438.914 318.418 445.58 314.252 448.914C307.252 441.414 264.252 421.414 240.252 413.414C244.956 405.888 264.262 389.069 277.773 382.107C279.36 381.29 281.202 381.131 282.866 381.775C291.971 385.299 310.14 396.45 317.711 402.983C318.418 403.592 318.995 404.32 319.475 405.12Z" fill="white"/>
<path d="M267.63 447.349L305.926 456.656C298.62 464.058 295.685 476.522 295.131 481.829C284.876 481.543 240.436 498.099 217.883 509.561C215.831 500.927 217.422 475.372 221.958 460.865C222.49 459.161 223.671 457.738 225.299 457.006C234.203 453.001 254.902 447.904 264.87 447.103C265.8 447.028 266.724 447.128 267.63 447.349Z" fill="white"/>
<path d="M260.185 516.7L294.198 496.793C294.085 507.192 300.632 518.198 303.92 522.4C296.344 529.318 275.876 572.098 267.615 596.009C260.141 591.223 243.534 571.735 236.719 558.149C235.919 556.553 235.78 554.709 236.443 553.052C240.065 543.986 251.415 525.94 258.029 518.44C258.646 517.741 259.38 517.171 260.185 516.7Z" fill="white"/>
<path d="M304.178 569.255L313.649 531C321.019 538.337 333.471 541.326 338.776 541.903C338.446 552.157 354.811 596.667 366.176 619.268C357.533 621.284 331.985 619.583 317.498 614.985C315.797 614.445 314.379 613.258 313.654 611.627C309.687 602.707 304.678 581.986 303.92 572.014C303.85 571.084 303.954 570.161 304.178 569.255Z" fill="white"/>
<path d="M371.18 575.146L350.41 541.652C360.809 541.5 371.644 534.674 375.761 531.28C382.87 538.676 426.159 558.044 450.273 565.692C445.68 573.286 426.622 590.385 413.215 597.545C411.64 598.385 409.801 598.571 408.127 597.952C398.971 594.562 380.641 583.677 372.975 577.257C372.26 576.658 371.671 575.939 371.18 575.146Z" fill="white"/>
<path d="M424.8 530L386.153 522.282C393.147 514.585 395.565 502.009 395.9 496.684C406.158 496.546 449.876 478.17 471.936 465.786C474.343 474.328 473.809 499.927 469.876 514.609C469.414 516.333 468.293 517.804 466.697 518.603C457.966 522.972 437.495 528.92 427.569 530.131C426.642 530.244 425.715 530.182 424.8 530Z" fill="white"/>
<path d="M429.576 464.336L395.661 484.41C395.723 474.01 389.122 463.037 385.814 458.851C393.355 451.896 413.612 409.016 421.755 385.064C429.253 389.813 445.956 409.219 452.837 422.772C453.645 424.363 453.793 426.206 453.139 427.867C449.561 436.951 438.301 455.052 431.724 462.585C431.11 463.288 430.379 463.861 429.576 464.336Z" fill="white"/>
<path d="M387.579 412.293L377.78 450.466C370.473 443.066 358.047 439.97 352.747 439.348C353.165 429.097 337.183 384.448 326.012 361.75C334.672 359.809 360.204 361.728 374.652 366.45C376.348 367.005 377.756 368.204 378.467 369.841C382.357 378.795 387.188 399.559 387.86 409.536C387.923 410.467 387.811 411.389 387.579 412.293Z" fill="white"/>
<path d="M389.752 490.414C389.752 514.991 369.829 534.914 345.252 534.914C320.675 534.914 300.752 514.991 300.752 490.414C300.752 465.837 320.675 445.914 345.252 445.914C369.829 445.914 389.752 465.837 389.752 490.414Z" fill="white"/>
<path d="M717.475 405.12L737.752 438.914C727.352 438.914 716.418 445.58 712.252 448.914C705.252 441.414 662.252 421.414 638.252 413.414C642.956 405.888 662.262 389.069 675.773 382.107C677.36 381.29 679.202 381.131 680.866 381.775C689.971 385.299 708.14 396.45 715.711 402.983C716.418 403.592 716.995 404.32 717.475 405.12Z" fill="white"/>
<path d="M665.63 447.349L703.926 456.656C696.62 464.058 693.685 476.522 693.131 481.829C682.876 481.543 638.436 498.099 615.883 509.561C613.831 500.927 615.422 475.372 619.958 460.865C620.49 459.161 621.671 457.738 623.299 457.006C632.203 453.001 652.902 447.904 662.87 447.103C663.8 447.028 664.724 447.128 665.63 447.349Z" fill="white"/>
<path d="M658.185 516.7L692.198 496.793C692.085 507.192 698.632 518.198 701.92 522.4C694.344 529.318 673.876 572.098 665.615 596.009C658.141 591.223 641.534 571.735 634.719 558.149C633.919 556.553 633.78 554.709 634.443 553.052C638.065 543.986 649.415 525.94 656.029 518.44C656.646 517.741 657.38 517.171 658.185 516.7Z" fill="white"/>
<path d="M702.178 569.255L711.649 531C719.019 538.337 731.471 541.326 736.776 541.903C736.446 552.157 752.811 596.667 764.176 619.268C755.533 621.284 729.985 619.583 715.498 614.985C713.797 614.445 712.379 613.258 711.654 611.627C707.687 602.707 702.678 581.986 701.92 572.014C701.85 571.084 701.954 570.161 702.178 569.255Z" fill="white"/>
<path d="M769.18 575.146L748.41 541.652C758.809 541.5 769.644 534.674 773.761 531.28C780.87 538.676 824.159 558.044 848.273 565.692C843.68 573.286 824.622 590.385 811.215 597.545C809.64 598.385 807.801 598.571 806.127 597.952C796.971 594.562 778.641 583.677 770.975 577.257C770.26 576.658 769.671 575.939 769.18 575.146Z" fill="white"/>
<path d="M822.8 530L784.153 522.282C791.147 514.585 793.565 502.009 793.9 496.684C804.158 496.546 847.876 478.17 869.936 465.786C872.343 474.328 871.809 499.927 867.876 514.609C867.414 516.333 866.293 517.804 864.697 518.603C855.966 522.972 835.495 528.92 825.569 530.131C824.642 530.244 823.715 530.182 822.8 530Z" fill="white"/>
<path d="M827.576 464.336L793.661 484.41C793.723 474.01 787.122 463.037 783.814 458.851C791.355 451.896 811.612 409.016 819.755 385.064C827.253 389.813 843.956 409.219 850.837 422.772C851.645 424.363 851.793 426.206 851.139 427.867C847.561 436.951 836.301 455.052 829.724 462.585C829.11 463.288 828.379 463.861 827.576 464.336Z" fill="white"/>
<path d="M785.579 412.293L775.78 450.466C768.473 443.066 756.047 439.97 750.747 439.348C751.165 429.097 735.183 384.448 724.012 361.75C732.672 359.809 758.204 361.728 772.652 366.45C774.348 367.005 775.756 368.204 776.467 369.841C780.357 378.795 785.188 399.559 785.86 409.536C785.923 410.467 785.811 411.389 785.579 412.293Z" fill="white"/>
<path d="M787.752 490.414C787.752 514.991 767.829 534.914 743.252 534.914C718.675 534.914 698.752 514.991 698.752 490.414C698.752 465.837 718.675 445.914 743.252 445.914C767.829 445.914 787.752 465.837 787.752 490.414Z" fill="white"/>
</g>
<defs>
<clipPath id="clip0_9_6">
<rect width="1024" height="1024" fill="white"/>
</clipPath>
</defs>
</svg>
